<svg width="172" height="24" viewBox="0 0 172 24" fill="none" xmlns="http://www.w3.org/2000/svg">
<path d="M47.0123 12.3731C47.0123 14.3631 46.5554 15.9639 45.6417 17.1755C44.7281 18.3791 43.5018 18.9809 41.963 18.9809C40.3199 18.9809 39.0496 18.3992 38.152 17.2357L38.0438 18.7402H36V0.252758H38.2241V7.14945C39.1217 6.0341 40.36 5.47643 41.9389 5.47643C43.5178 5.47643 44.7561 6.07422 45.6538 7.26981C46.5594 8.4654 47.0123 10.1023 47.0123 12.1805V12.3731ZM44.7882 12.1204C44.7882 10.6038 44.4956 9.4323 43.9106 8.60582C43.3255 7.77934 42.4839 7.3661 41.3859 7.3661C39.9192 7.3661 38.8653 8.04814 38.2241 9.41224V15.0451C38.9053 16.4092 39.9673 17.0913 41.41 17.0913C42.4759 17.0913 43.3054 16.678 43.8985 15.8516C44.4916 15.0251 44.7882 13.7813 44.7882 12.1204Z" fill="white"/>
<path d="M58.5134 17.4524C57.6478 18.4714 56.3775 18.9809 54.7024 18.9809C53.3159 18.9809 52.2579 18.5797 51.5286 17.7773C50.8072 16.9669 50.4426 15.7713 50.4346 14.1906V5.71715H52.6587V14.1304C52.6587 16.1043 53.4601 17.0913 55.0631 17.0913C56.7622 17.0913 57.8923 16.4574 58.4533 15.1896V5.71715H60.6774V18.7402H58.5615L58.5134 17.4524Z" fill="white"/>
<path d="M64.1478 12.1204C64.1478 10.1224 64.6207 8.51755 65.5664 7.30592C66.5121 6.08626 67.7504 5.47643 69.2812 5.47643C70.804 5.47643 72.0103 5.99799 72.8999 7.04112V0.252758H75.124V18.7402H73.0802L72.972 17.344C72.0824 18.4353 70.8441 18.9809 69.2572 18.9809C67.7504 18.9809 66.5202 18.3631 65.5664 17.1274C64.6207 15.8917 64.1478 14.2788 64.1478 12.2889V12.1204ZM66.3719 12.3731C66.3719 13.8495 66.6764 15.005 67.2856 15.8395C67.8947 16.674 68.7362 17.0913 69.8102 17.0913C71.2208 17.0913 72.2507 16.4574 72.8999 15.1896V9.20762C72.2347 7.97994 71.2128 7.3661 69.8343 7.3661C68.7442 7.3661 67.8947 7.78736 67.2856 8.62989C66.6764 9.47242 66.3719 10.7202 66.3719 12.3731Z" fill="white"/>
<path d="M78.5583 12.1204C78.5583 10.0903 79.0272 8.47743 79.9649 7.28185C80.9026 6.07823 82.1449 5.47643 83.6918 5.47643C85.2787 5.47643 86.5169 6.03811 87.4066 7.16148L87.5148 5.71715H89.5465V18.4273C89.5465 20.1123 89.0456 21.4403 88.0438 22.4112C87.0499 23.3821 85.7115 23.8676 84.0284 23.8676C83.0906 23.8676 82.173 23.667 81.2753 23.2658C80.3777 22.8646 79.6924 22.3149 79.2195 21.6169L80.3736 20.2808C81.3274 21.4604 82.4935 22.0502 83.8721 22.0502C84.9541 22.0502 85.7956 21.7452 86.3967 21.1354C87.0058 20.5256 87.3104 19.667 87.3104 18.5597V17.4403C86.4208 18.4674 85.2065 18.9809 83.6677 18.9809C82.1449 18.9809 80.9106 18.3671 79.9649 17.1394C79.0272 15.9117 78.5583 14.2387 78.5583 12.1204ZM80.7944 12.3731C80.7944 13.8415 81.095 14.997 81.6961 15.8395C82.2972 16.674 83.1387 17.0913 84.2207 17.0913C85.6233 17.0913 86.6532 16.4534 87.3104 15.1775V9.2317C86.6292 7.98796 85.6073 7.3661 84.2448 7.3661C83.1628 7.3661 82.3172 7.78736 81.7081 8.62989C81.099 9.47242 80.7944 10.7202 80.7944 12.3731Z" fill="white"/>
<path d="M99.2323 18.9809C97.4691 18.9809 96.0345 18.4032 94.9284 17.2477C93.8224 16.0843 93.2694 14.5316 93.2694 12.5898V12.1805C93.2694 10.8887 93.5138 9.73721 94.0027 8.72618C94.4996 7.70712 95.1889 6.91274 96.0705 6.34303C96.9602 5.7653 97.9219 5.47643 98.9558 5.47643C100.647 5.47643 101.961 6.0341 102.899 7.14945C103.837 8.26479 104.306 9.86158 104.306 11.9398V12.8666H95.4935C95.5255 14.1505 95.8982 15.1896 96.6115 15.984C97.3329 16.7703 98.2465 17.1635 99.3526 17.1635C100.138 17.1635 100.803 17.003 101.348 16.682C101.893 16.3611 102.37 15.9358 102.779 15.4062L104.137 16.4654C103.047 18.1424 101.412 18.9809 99.2323 18.9809ZM98.9558 7.30592C98.0582 7.30592 97.3048 7.6349 96.6957 8.29288C96.0866 8.94283 95.7099 9.85757 95.5656 11.0371H102.082V10.8686C102.017 9.73721 101.713 8.86259 101.168 8.24473C100.623 7.61886 99.8855 7.30592 98.9558 7.30592Z" fill="white"/>
<path d="M110.637 2.56369V5.71715H113.066V7.43831H110.637V15.5145C110.637 16.0361 110.746 16.4293 110.962 16.6941C111.178 16.9509 111.547 17.0792 112.068 17.0792C112.324 17.0792 112.677 17.0311 113.126 16.9348V18.7402C112.541 18.9007 111.972 18.9809 111.419 18.9809C110.425 18.9809 109.676 18.68 109.171 18.0782C108.666 17.4764 108.413 16.6219 108.413 15.5145V7.43831H106.045V5.71715H108.413V2.56369H110.637Z" fill="white"/>
<path d="M117.694 18.7402V7.43831H115.639V5.71715H117.694V4.38114C117.694 2.98495 118.067 1.90572 118.812 1.14343C119.558 0.381143 120.612 0 121.974 0C122.487 0 122.996 0.0682046 123.501 0.204614L123.381 2.01003C123.004 1.93781 122.603 1.90171 122.179 1.90171C121.457 1.90171 120.9 2.11434 120.507 2.53962C120.115 2.95687 119.918 3.55868 119.918 4.34504V5.71715H122.696V7.43831H119.918V18.7402H117.694Z" fill="white"/>
<path d="M130.59 15.4784L133.62 5.71715H136L130.77 20.7503C129.961 22.9168 128.675 24 126.911 24L126.491 23.9639L125.661 23.8074V22.002L126.262 22.0502C127.015 22.0502 127.601 21.8977 128.017 21.5928C128.442 21.2879 128.791 20.7302 129.063 19.9198L129.556 18.5958L124.916 5.71715H127.344L130.59 15.4784Z" fill="white"/>
<path d="M140.964 21.0379C140.408 21.0379 139.941 20.8443 139.565 20.4571C139.188 20.0699 139 19.5905 139 19.0189C139 18.4474 139.188 17.968 139.565 17.5808C139.941 17.1936 140.408 17 140.964 17C141.501 17 141.959 17.1936 142.335 17.5808C142.712 17.968 142.9 18.4474 142.9 19.0189C142.9 19.5905 142.712 20.0699 142.335 20.4571C141.959 20.8443 141.501 21.0379 140.964 21.0379Z" fill="white"/>
<path d="M140.964 21.0379C140.408 21.0379 139.942 20.8443 139.565 20.4571C139.189 20.0699 139 19.5906 139 19.019C139 18.4474 139.189 17.968 139.565 17.5808C139.942 17.1936 140.408 17 140.964 17C141.502 17 141.959 17.1936 142.336 17.5808C142.712 17.968 142.9 18.4474 142.9 19.019C142.9 19.5906 142.712 20.0699 142.336 20.4571C141.959 20.8443 141.502 21.0379 140.964 21.0379Z" fill="#49AA26"/>
<path d="M140.964 21.0379C140.408 21.0379 139.941 20.8443 139.565 20.4571C139.188 20.0699 139 19.5905 139 19.0189C139 18.4474 139.188 17.968 139.565 17.5808C139.941 17.1936 140.408 17 140.964 17C141.501 17 141.959 17.1936 142.335 17.5808C142.712 17.968 142.9 18.4474 142.9 19.0189C142.9 19.5905 142.712 20.0699 142.335 20.4571C141.959 20.8443 141.501 21.0379 140.964 21.0379Z" fill="white"/>
<path d="M140.963 21.0379C140.408 21.0379 139.941 20.8443 139.565 20.4571C139.188 20.0699 139 19.5906 139 19.019C139 18.4474 139.188 17.968 139.565 17.5808C139.941 17.1936 140.408 17 140.963 17C141.501 17 141.959 17.1936 142.335 17.5808C142.712 17.968 142.9 18.4474 142.9 19.019C142.9 19.5906 142.712 20.0699 142.335 20.4571C141.959 20.8443 141.501 21.0379 140.963 21.0379Z" fill="#49AA26"/>
</svg>
